<?xml version="1.0" encoding="UTF-8"?>
<!DOCTYPE svg PUBLIC "-//W3C//DTD SVG 1.1//EN" "http://www.w3.org/Graphics/SVG/1.1/DTD/svg11.dtd">
<!-- Creator: CorelDRAW (Versão OEM) -->
<svg xmlns="http://www.w3.org/2000/svg" xml:space="preserve" width="1202.55mm" height="478.489mm" version="1.1" style="shape-rendering:geometricPrecision; text-rendering:geometricPrecision; image-rendering:optimizeQuality; fill-rule:evenodd; clip-rule:evenodd"
viewBox="0 0 54480.08 21677.42"
 xmlns:xlink="http://www.w3.org/1999/xlink"
 xmlns:xodm="http://www.corel.com/coreldraw/odm/2003">
 <defs>
  <style type="text/css">
   <![CDATA[
    .fil0 {fill:white}
    .fil2 {fill:lime;fill-rule:nonzero}
    .fil1 {fill:white;fill-rule:nonzero}
   ]]>
  </style>
 </defs>
 <g id="Camada_x0020_1">
  <metadata id="CorelCorpID_0Corel-Layer"/>
  <g id="_2640714936416">
   <path class="fil0" d="M33565.13 0l20889.08 0 0 1875.16c-608.83,-567.78 -1697.33,-886.69 -3144.24,-886.69 -2373.36,0 -3632.51,851.52 -3714.03,2500.17l2445.82 0c81.51,-489.15 543.5,-760.92 1304.46,-760.92 779.02,0 1259.12,289.88 1259.12,769.97 0,434.83 -389.53,634.1 -1222.91,634.1l-1775.46 0 0 1422.22 1857.02 0c869.63,0 1277.26,217.37 1277.26,679.36 0,507.29 -534.49,815.28 -1395.02,815.28 -842.47,0 -1358.81,-298.93 -1395.06,-851.48l-2427.67 0c36.21,1703 1340.67,2590.73 3822.73,2590.73 1394.98,0 2464.96,-280.74 3108,-786.24l0 1801.95 -16976.71 0 -437.88 -1097.22 1497.68 0 0 -7609.22 -4284.68 0 0 625.55 -687.5 -1722.73zm20889.08 4468.48l0 745.9c-207.7,-143 -463.87,-256.04 -770.89,-339.77 315.19,-100.86 571.11,-235.77 770.89,-406.13zm-18308.37 1998.3l-1358.4 -3403.88 1358.4 0 0 3403.88zm7092.92 -3739.06c824.32,0 1268.17,262.72 1268.17,760.92l2445.86 0c0,-1603.35 -1286.36,-2500.17 -3569.11,-2500.17 -2844.4,0 -4031.06,1159.5 -4031.06,3931.44 0,2590.73 1032.65,3895.19 4076.36,3895.19 2400.51,0 3550.96,-824.32 3550.96,-2554.52 0,-1576.19 -960.23,-2264.65 -3052.77,-2264.65 -951.14,0 -1666.75,144.92 -2155.94,434.79 18.15,-1250.07 389.53,-1703 1467.52,-1703zm36.21 2654.18c887.77,0 1295.41,253.62 1295.41,842.43 0,588.81 -407.64,842.47 -1295.41,842.47 -887.73,0 -1295.36,-253.67 -1295.36,-842.47 0,-588.8 407.64,-842.43 1295.36,-842.43z"/>
   <polygon class="fil1" points="4108.18,9803.62 7189.32,9803.62 7189.32,2520.95 11285.82,2520.95 11285.82,0 -0,0 -0,2520.95 4108.18,2520.95 "/>
   <path class="fil1" d="M12102.8 9803.62l3081.13 0 0 -3314.56 1610.6 0c1062.06,0 1388.85,140.08 1680.61,700.26l1342.17 2614.3 3326.24 0 -1563.92 -3022.77c-256.76,-490.19 -653.59,-851.98 -1155.42,-1108.74 1213.78,-280.11 2042.39,-1283.81 2042.39,-2637.66 0,-1832.36 -1528.88,-3034.45 -3874.75,-3034.45l-6489.05 0 0 9803.62zm3081.13 -5345.32l0 -1937.36 2894.41 0c816.94,0 1307.13,350.11 1307.13,957.02 0,630.22 -466.83,980.34 -1307.13,980.34l-2894.41 0z"/>
   <path class="fil1" d="M23493.66 9803.62l3279.53 0 816.98 -2124.11 4715.09 0 816.94 2124.11 3291.25 0 -3956.47 -9803.62 -5006.84 0 -3956.47 9803.62zm4971.85 -4388.3l1132.05 -2917.73 700.27 0 1132.09 2917.73 -2964.41 0z"/>
   <g>
    <path class="fil2" d="M4878.45 21665.77c3022.81,0 4563.38,-1330.49 4563.38,-3956.47l0 -5975.54 -7154.33 0 0 2520.94 4073.15 0 0 3454.6c0,957.02 -536.82,1435.53 -1587.24,1435.53 -1050.37,0 -1587.24,-478.51 -1587.24,-1435.53l-2941.09 0c-151.72,2544.26 1517.24,3956.47 4633.37,3956.47z"/>
    <path class="fil2" d="M15137.21 21665.77c3022.82,0 4563.38,-1330.49 4563.38,-3956.47l0 -5975.54 -7154.32 0 0 2520.94 4073.15 0 0 3454.6c0,957.02 -536.82,1435.53 -1587.24,1435.53 -1050.37,0 -1587.24,-478.51 -1587.24,-1435.53l-2941.1 0c-151.71,2544.26 1517.25,3956.47 4633.37,3956.47z"/>
   </g>
   <polygon class="fil1" points="21101.08,21537.38 30356.14,21537.38 30356.14,19086.47 24182.21,19086.47 24182.21,17615.95 29305.77,17615.95 29305.77,15445.12 24182.21,15445.12 24182.21,14184.67 30356.14,14184.67 30356.14,11733.76 21101.08,11733.76 "/>
   <polygon class="fil1" points="35024.56,21537.38 38105.69,21537.38 38105.69,14254.71 42202.2,14254.71 42202.2,11733.76 30916.37,11733.76 30916.37,14254.71 35024.56,14254.71 "/>
   <path class="fil1" d="M42669.03 16635.57c0,3069.45 2065.79,5041.85 5905.55,5041.85 3828.07,0 5905.5,-1972.39 5905.5,-5041.85 0,-3069.45 -2077.43,-5041.84 -5905.5,-5041.84 -3839.75,0 -5905.55,1972.39 -5905.55,5041.84zm3092.81 0c0,-1517.25 851.98,-2450.9 2812.74,-2450.9 1949.04,0 2801.01,933.65 2801.01,2450.9 0,1517.25 -851.98,2450.9 -2801.01,2450.9 -1960.76,0 -2812.74,-933.66 -2812.74,-2450.9z"/>
  </g>
 </g>
</svg>
