<?xml version="1.0" encoding="UTF-8"?>
<!DOCTYPE svg PUBLIC "-//W3C//DTD SVG 1.1//EN" "http://www.w3.org/Graphics/SVG/1.1/DTD/svg11.dtd">
<!-- Creator: CorelDRAW (Versão OEM) -->
<svg xmlns="http://www.w3.org/2000/svg" xml:space="preserve" width="252.739mm" height="237.548mm" version="1.1" style="shape-rendering:geometricPrecision; text-rendering:geometricPrecision; image-rendering:optimizeQuality; fill-rule:evenodd; clip-rule:evenodd"
viewBox="0 0 25273.94 23754.79"
 xmlns:xlink="http://www.w3.org/1999/xlink"
 xmlns:xodm="http://www.corel.com/coreldraw/odm/2003">
 <defs>
  <style type="text/css">
   <![CDATA[
    .fil0 {fill:#9eff00}
   ]]>
  </style>
 </defs>
 <g id="Camada_x0020_1">
  <metadata id="CorelCorpID_0Corel-Layer"/>
  <path class="fil0" d="M8933.17 7603.16l-6380.35 1678.31 384.22 -771.63c14.85,-29.81 29.87,-59.54 44.69,-89.37 78.38,-157.64 162.36,-312.69 237.92,-471.7 73.29,-154.28 150.58,-306.6 225.65,-460.02 44.33,-90.57 68.74,-174.14 126.72,-262.11 80.33,-121.92 192.28,-187.4 329.34,-225.68 2190.19,-611.62 4398.16,-1156.31 6596.2,-1738.37l6581.64 -1742.85c680.52,-186.62 1358.1,-389.84 2047.29,-549.26 -36.03,-207.61 -103.92,-425.68 -161.03,-617.01 -67.89,-227.48 -142.71,-452.62 -206.88,-681.09 -171.62,33.12 -346.29,86.08 -508.21,133.67 -246.25,72.39 -489.91,152.51 -738.94,215.41 -487.51,123.13 -972.04,257.65 -1456.67,391.6 -967.61,267.45 -1936.84,529.35 -2910.66,773.34 -2916.54,730.72 -5810.75,1546.59 -8719.26,2307.96 -484.27,126.77 -964.84,267 -1453.13,378.14 -45.9,10.45 -177.85,34.64 -226.83,59.33 -41.22,69.7 -80.82,194.39 -117.74,268.03 -188.96,376.91 -384.84,750.29 -578.44,1124.79 -312.91,605.32 -626.04,1210.51 -937.86,1816.37 -295.26,573.64 -590.18,1147.48 -879.76,1724.03 -77.74,154.73 -155.31,309.58 -231.08,465.3l6994.7 -1838.33 -3602.84 11873.64c294.76,-95.87 585.14,-218.04 874.87,-318.41 835.39,-289.38 1673.09,-572 2508.97,-859.94 493.19,-169.89 986.26,-340.1 1478.05,-514.01 164.75,-58.27 329.47,-116.73 493.33,-177.45 51.51,-19.08 130.99,-42.71 179.09,-67.86 17.93,-40.05 38.66,-143.35 49.25,-181.2 122.58,-438.08 257.16,-872.73 376.61,-1311.69 239.12,-878.82 514.68,-1746.97 767.68,-2621.77 503.81,-1742.01 996.6,-3487.23 1510.67,-5226.26 128.84,-435.86 255.41,-872.41 376.81,-1310.4 30.69,-110.71 61.89,-221.28 94.05,-331.57 55.2,-189.36 134.58,-320.11 329.93,-396.95 86.86,-34.18 174.74,-53.27 265.13,-74.17 128.68,-29.75 257.42,-59.53 385.13,-93.33 457.27,-121.05 910.08,-258.42 1365.71,-385.41 226.04,-63.03 452.06,-126.12 679.9,-182.42l1527.56 -377.46 -1173.29 1048.49c-145.9,130.39 -293.16,259.28 -439.99,388.61 -209.28,184.34 -418.46,368.84 -623.72,557.65 -155.01,142.57 -313.06,287.25 -452.21,445.52 -709.54,807.1 -505.49,1750.54 60.85,2573.54 266.88,387.8 567.34,752.55 853.69,1125.96 276.24,360.24 578.54,744.04 778.94,1152.04 255.72,520.6 249.96,1219.2 -45.29,1722.72 -133.56,227.77 -288.15,375.15 -456.94,569.34 -159.29,183.23 -348.25,332.33 -533.93,486.97l-7934.37 6608.7c-44.78,38.11 -109.08,86.77 -176.61,139.89l3436.4 -4.15c218.81,-248.29 481.7,-433.76 701.94,-675.27 55.54,-60.9 100.55,-124.36 161.55,-182.57 195.05,-186.13 427.13,-354.01 600.35,-559.06l14.1 -16.7 1581.62 -1496.16 4.04 -3.6c215.28,-192.66 416.71,-400.81 627.42,-598.5l1557.57 -1461.44c493.27,-509.59 1074.38,-954.56 1518.78,-1507.44 622.77,-774.81 1024.15,-1537.22 805.66,-2553.62 -126.65,-589.19 -406.9,-1058.64 -829.91,-1483.47l-10.39 -10.44 -562.47 -657.25 -3.93 -4.91c-38.51,-48.05 -92.56,-93.41 -134.57,-141.68 -51.61,-59.31 -99.48,-121.35 -149.78,-181.66 -94.59,-113.42 -192.77,-223.62 -285.19,-338.88 -199.65,-248.96 -418.18,-501.15 -541.96,-798.6 -158.57,-381.07 -126.15,-752.45 30.13,-1129.62 253.33,-611.37 788.57,-882.34 1229.5,-1313.52l7.78 -7.6 1300.46 -1137.48c53.49,-52.78 109.37,-94.78 166.74,-142.57 51.48,-42.88 96.06,-95.29 149.33,-139.93l2312.25 -1981.5c224.67,-192.53 453.74,-379.8 680.24,-570.13 211.25,-177.52 427.12,-353.74 623.89,-547.35 382.16,-376.05 805.61,-702.18 1212.19,-1050.2l275.8 -236.04 255.8 257.57c51.99,52.34 101.1,106.91 151.3,160.9 133.18,143.19 263.34,289.13 394.67,434.01 70.53,77.81 218.48,248.11 353.82,384.76 140.97,-682.68 379.32,-1338.4 551.34,-2014 174.64,-685.85 413.17,-1357.83 575.74,-2046.69l-4239.52 690.31c146.85,149.99 300.68,294.44 448.08,441.54 178.17,177.78 370.01,357.83 523.62,557.07l208.18 270.03 -239.22 242.95c-28.04,28.48 -56.92,55.85 -85.47,83.75 -103.04,100.65 -209,198.21 -315.62,295.03 -186.47,169.35 -375.78,335.53 -565.38,501.35l-1652.3 1444.92 -5.01 4.1c-227.84,186.28 -384.42,362.84 -677.99,456.37 -541.26,172.43 -1094.45,300.12 -1641.15,453.07 -1632.26,456.7 -3280.52,853.12 -4915.7,1298.94 -278.15,75.82 -557.97,145.4 -838.75,210.73 -30.37,7.06 -81.8,16.99 -121.03,28.72 -7.42,22.38 -13.77,48.33 -17.92,64.86 -34.76,138.69 -73.4,276.32 -112.23,413.9 -300.97,1066.61 -636.87,2122.86 -946.3,3186.97l-2103.51 7233.81c-35.58,124.21 -58.87,277.25 -116.39,391.61l-47.96 95.34 -89.75 57.74c-100.67,64.79 -243.2,101.12 -357.23,141.23 -400,140.67 -791.49,303.98 -1193.75,438.75l-714.37 239.36 3475.9 -11639.29zm7584.84 13988.72l-1801.53 2149.64 2870.53 12.64c36,-41.86 91.01,-132.58 116.58,-167.62 69.13,-94.73 130.89,-194.49 200.81,-288.96 1137.52,-1537.03 2221.41,-3112.74 3320.94,-4676.89 137.85,-196.12 291.45,-381.08 426.87,-578.61 288.42,-420.69 482.68,-821.93 612.06,-1316.56 267.5,-1022.64 136.38,-2140.1 -463.41,-3023.52 -248.34,-365.78 -601.11,-681.37 -945.95,-954.51l-2240.81 -1774.96 -14.32 -13.93c-572.89,-557.79 -479.37,-1069.09 76.8,-1583.04 169.95,-157.04 322.58,-329.8 498.24,-481.76l3129.94 -2921.73 5.66 -4.9c60.26,-52.08 114.38,-111.62 171.75,-168.47 -194.01,-0.47 -388.22,3.51 -581.69,2.04 -67.85,-0.51 -251.88,-15.8 -314.26,5.35 -87.92,29.83 -246.31,193.27 -311.6,257.89 -354.99,351.33 -766.76,641.59 -1115.77,995.85 -173.68,176.31 -380.82,310.04 -552.15,482.32l-8.8 8.83 -1713.19 1515.95c-346.75,306.83 -750.15,622.35 -829.26,1108.45 -122.09,750.12 612.95,1350.5 1114.14,1791.54 189.87,167.09 364.63,350.82 555.59,516.16 95.88,83.01 176.79,177.13 268.31,263.42 742.91,700.46 1434.43,1265.5 1564.85,2352.58 149.77,1248.31 -429.68,2281.98 -1241.59,3178.2 -39.38,43.45 -73.04,98.17 -113.05,144.25 -37.97,43.73 -82.05,84.4 -118.22,128.67l-2.25 2.76 -2449.24 2889.14c-40.68,47.97 -72.31,100.96 -115.98,149.78z"/>
 </g>
</svg>
